# Blender v3.2.0 OBJ File: 'door.blend'
# www.blender.org
o door_06
v 0.280300 1.812129 0.007835
v -0.280300 1.812129 0.007835
v -0.280300 0.200000 0.007835
v 0.280300 0.200000 0.007835
v -0.280300 1.812129 -0.007835
v 0.280300 1.812129 -0.007835
v 0.280300 0.200000 -0.007835
v -0.280300 0.200000 -0.007835
v -0.280300 1.981000 -0.022000
v -0.280300 1.812129 -0.022000
v -0.280300 1.981000 0.022000
v 0.280300 1.981000 -0.022000
v 0.280300 1.812129 -0.022000
v 0.280300 1.981000 0.022000
v 0.280300 1.812129 0.022000
v -0.280300 1.812129 0.022000
v 0.280300 0.000000 -0.022000
v 0.280300 0.200000 -0.022000
v 0.280300 0.000000 0.022000
v -0.280300 0.000000 -0.022000
v -0.280300 0.200000 -0.022000
v -0.280300 0.000000 0.022000
v -0.280300 0.200000 0.022000
v 0.280300 0.200000 0.022000
v 0.419000 0.000000 0.022000
v 0.419000 0.000000 -0.022000
v 0.280300 0.000000 0.022000
v 0.419000 1.981000 0.022000
v 0.419000 1.981000 -0.022000
v 0.280300 1.981000 0.022000
v 0.280300 1.981000 -0.022000
v 0.280300 0.000000 -0.022000
v -0.419000 0.000000 0.022000
v -0.419000 0.000000 -0.022000
v -0.419000 1.981000 0.022000
v -0.280300 0.000000 0.022000
v -0.280300 0.000000 -0.022000
v -0.280300 1.981000 0.022000
v -0.280300 1.981000 -0.022000
v -0.419000 1.981000 -0.022000
v -0.280300 0.653700 -0.022000
v -0.280300 0.537013 -0.022000
v 0.280300 0.653700 -0.022000
v -0.280300 0.653700 0.022000
v -0.280300 0.537013 0.022000
v 0.280300 0.653700 0.022000
v 0.280300 0.537013 0.022000
v 0.280300 0.537013 -0.022000
v -0.280300 1.499671 -0.022000
v -0.280300 1.382984 -0.022000
v 0.280300 1.499671 -0.022000
v -0.280300 1.499671 0.022000
v -0.280300 1.382984 0.022000
v 0.280300 1.499671 0.022000
v 0.280300 1.382984 0.022000
v 0.280300 1.382984 -0.022000
v -0.280300 1.076685 -0.022000
v -0.280300 0.959999 -0.022000
v 0.280300 1.076685 -0.022000
v -0.280300 1.076685 0.022000
v -0.280300 0.959999 0.022000
v 0.280300 1.076685 0.022000
v 0.280300 0.959999 0.022000
v 0.280300 0.959999 -0.022000
vt 0.004880 0.711647
vt 0.004880 0.006118
vt 0.250221 0.006118
vt 0.250221 0.711647
vt 0.675023 0.711648
vt 0.429681 0.711648
vt 0.429681 0.006113
vt 0.675023 0.006113
vt 0.675040 0.887659
vt 0.429697 0.887659
vt 0.429697 0.813754
vt 0.675040 0.813754
vt 0.675040 0.794498
vt 0.429697 0.794498
vt 0.429697 0.720593
vt 0.675040 0.720593
vt 0.429697 0.906916
vt 0.675040 0.906916
vt 0.004885 0.741369
vt 0.250224 0.741369
vt 0.250224 0.828896
vt 0.004885 0.828896
vt 0.004885 0.722113
vt 0.250224 0.722113
vt 0.004885 0.935679
vt 0.004885 0.848153
vt 0.250224 0.848153
vt 0.250224 0.935679
vt 0.320695 0.006118
vt 0.339952 0.006118
vt 0.339951 0.873082
vt 0.320696 0.873082
vt 0.394659 0.902259
vt 0.333960 0.902259
vt 0.333960 0.883004
vt 0.394659 0.883004
vt 0.259996 0.873082
vt 0.259995 0.006118
vt 0.755418 0.881741
vt 0.816118 0.881741
vt 0.816118 0.900997
vt 0.755418 0.900997
vt 0.400652 0.006118
vt 0.419908 0.006118
vt 0.419905 0.873082
vt 0.400651 0.873082
vt 0.321417 0.901983
vt 0.260718 0.901983
vt 0.260718 0.882727
vt 0.321417 0.882727
vt 0.764737 0.006118
vt 0.783994 0.006118
vt 0.783994 0.873097
vt 0.764739 0.873097
vt 0.844695 0.006118
vt 0.844695 0.873097
vt 0.704036 0.006118
vt 0.704038 0.873097
vt 0.684782 0.873097
vt 0.684781 0.006118
vt 0.746064 0.901595
vt 0.685365 0.901595
vt 0.685365 0.882339
vt 0.746064 0.882339
vt 0.974005 0.507461
vt 0.922938 0.507461
vt 0.922938 0.262117
vt 0.974005 0.262118
vt 0.903681 0.507462
vt 0.903681 0.262117
vt 0.993265 0.251458
vt 0.942197 0.251458
vt 0.942197 0.006113
vt 0.993265 0.006113
vt 0.993262 0.262118
vt 0.993261 0.507462
vt 0.871874 0.006113
vt 0.922941 0.006114
vt 0.922941 0.251458
vt 0.871874 0.251458
vt 0.852621 0.518109
vt 0.903688 0.518109
vt 0.903688 0.763449
vt 0.852621 0.763449
vt 0.852617 0.251458
vt 0.852617 0.006114
vt 0.974010 0.763449
vt 0.922944 0.763449
vt 0.922944 0.518109
vt 0.974010 0.518109
vt 0.993267 0.518109
vt 0.993266 0.763449
vt 0.852614 0.262117
vt 0.852614 0.507461
vn 0.0000 0.0000 -1.0000
vn 0.0000 0.0000 1.0000
vn 0.0000 1.0000 0.0000
vn 0.0000 -1.0000 0.0000
vn 1.0000 0.0000 0.0000
vn -1.0000 0.0000 0.0000
s off
f 6/1/1 7/2/1 8/3/1 5/4/1
f 1/5/2 2/6/2 3/7/2 4/8/2
f 13/9/1 10/10/1 9/11/1 12/12/1
f 14/13/3 12/12/3 9/11/3 11/14/3
f 16/15/2 15/16/2 14/13/2 11/14/2
f 16/17/4 10/10/4 13/9/4 15/18/4
f 17/19/1 20/20/1 21/21/1 18/22/1
f 19/23/4 22/24/4 20/20/4 17/19/4
f 19/25/2 24/26/2 23/27/2 22/28/2
f 24/26/3 18/22/3 21/21/3 23/27/3
f 25/29/5 26/30/5 29/31/5 28/32/5
f 32/33/4 26/34/4 25/35/4 27/36/4
f 30/37/2 27/38/2 25/29/2 28/32/2
f 29/39/3 31/40/3 30/41/3 28/42/3
f 32/43/6 27/44/6 30/45/6 31/46/6
f 26/30/1 32/43/1 31/46/1 29/31/1
f 34/47/4 37/48/4 36/49/4 33/50/4
f 34/51/6 33/52/6 35/53/6 40/54/6
f 35/53/2 33/52/2 36/55/2 38/56/2
f 37/57/5 39/58/5 38/59/5 36/60/5
f 39/61/3 40/62/3 35/63/3 38/64/3
f 39/58/1 37/57/1 34/51/1 40/54/1
f 42/65/1 41/66/1 43/67/1 48/68/1
f 43/67/3 41/66/3 44/69/3 46/70/3
f 55/71/2 54/72/2 52/73/2 53/74/2
f 47/75/4 45/76/4 42/65/4 48/68/4
f 50/77/1 49/78/1 51/79/1 56/80/1
f 51/79/3 49/78/3 52/73/3 54/72/3
f 63/81/2 62/82/2 60/83/2 61/84/2
f 55/85/4 53/86/4 50/77/4 56/80/4
f 58/87/1 57/88/1 59/89/1 64/90/1
f 59/89/3 57/88/3 60/83/3 62/82/3
f 63/91/4 61/92/4 58/87/4 64/90/4
f 47/93/2 46/70/2 44/69/2 45/94/2
