# ProBuilder 5.0.4
# https://unity3d.com/unity/features/worldbuilding/probuilder
# 16/07/2022 22:44:40

mtllib ./SmallPiece.mtl
o SmallPiece

g SmallPiece
v -0.4749999 0.02500007 0.25
v -0.3499999 0.02500007 0.4665064
v -0.2249999 0.5250001 0.25
v -0.2249999 0.02500007 0.25
v -0.09999989 0.02500007 0.4665064
v 0.0250001 0.02500007 0.25
v -0.09999993 0.02500007 0.03349364
v -0.3499999 0.02500007 0.03349364

vt 0 0
vt 0.5 2.980232E-08
vt 0.25 0.6614379
vt -0.4749999 0.25
vt -0.3499999 0.4665064
vt -0.2249999 0.25
vt -0.09999989 0.4665064
vt 0.0250001 0.25
vt -0.09999993 0.03349364
vt -0.3499999 0.03349364

vn -0.8944272 0.4472136 -5.031211E-08
vn -0.4472136 0.4472136 0.7745966
vn 0 1 -1.250014E-07
vn 0 -1 0
vn 0.4472136 0.4472136 0.7745966
vn 0.8944272 0.4472136 -1.173949E-07
vn 0.4472135 0.4472136 -0.7745966
vn -0.4472136 0.4472136 -0.7745966

usemtl White
f 1/1/1 2/2/2 3/3/3
f 4/6/4 2/5/4 1/4/4
f 2/1/2 5/2/5 3/3/3
f 4/6/4 5/7/4 2/5/4
f 5/1/5 6/2/6 3/3/3
f 4/6/4 6/8/4 5/7/4
f 6/1/6 7/2/7 3/3/3
f 4/6/4 7/9/4 6/8/4
f 7/1/7 8/2/8 3/3/3
f 4/6/4 8/10/4 7/9/4
f 8/1/8 1/2/1 3/3/3
f 4/6/4 1/4/4 8/10/4

