# ProBuilder 5.0.4
# https://unity3d.com/unity/features/worldbuilding/probuilder
# 16/07/2022 20:56:54

mtllib ./Piece.mtl
o Piece

g Piece
v -0.2555358 -0.0260433 0.1480398
v -0.2555358 1.973957 0.1480398
v -0.2479974 -0.0260433 0.1907923
v -0.2479974 1.973957 0.1907923
v -0.2262914 -0.0260433 0.2283883
v -0.2262914 1.973957 0.2283883
v -0.1930358 -0.0260433 0.256293
v -0.1930358 1.973957 0.256293
v -0.1522419 -0.0260433 0.2711408
v -0.1522419 1.973957 0.2711408
v -0.1088298 -0.0260433 0.2711408
v -0.1088298 1.973957 0.2711408
v -0.06803583 -0.0260433 0.256293
v -0.06803583 1.973957 0.256293
v -0.03478029 -0.0260433 0.2283883
v -0.03478029 1.973957 0.2283883
v -0.01307426 -0.0260433 0.1907924
v -0.01307426 1.973957 0.1907924
v -0.005535841 -0.0260433 0.1480398
v -0.005535841 1.973957 0.1480398
v -0.01307426 -0.0260433 0.1052873
v -0.01307426 1.973957 0.1052873
v -0.03478028 -0.0260433 0.06769137
v -0.03478028 1.973957 0.06769137
v -0.06803586 -0.0260433 0.03978664
v -0.06803586 1.973957 0.03978664
v -0.1088298 -0.0260433 0.02493884
v -0.1088298 1.973957 0.02493884
v -0.1522419 -0.0260433 0.02493885
v -0.1522419 1.973957 0.02493885
v -0.1930358 -0.0260433 0.03978664
v -0.1930358 1.973957 0.03978664
v -0.2262914 -0.0260433 0.06769135
v -0.2262914 1.973957 0.06769135
v -0.2479974 -0.0260433 0.1052873
v -0.2479974 1.973957 0.1052873
v -0.1305358 -0.0260433 0.1480398
v -0.1305358 1.973957 0.1480398

vt 0.1014174 -0.0260433
vt 0.1014174 1.973957
vt 0.1448295 -0.0260433
vt 0.1448295 1.973957
vt 0.04123223 -0.0260433
vt 0.04123223 1.973957
vt 0.08464427 -0.0260433
vt 0.08464427 1.973957
vt -0.02654403 -0.0260433
vt -0.02654403 1.973957
vt 0.01686802 -0.0260433
vt 0.01686802 1.973957
vt -0.09373703 -0.0260433
vt -0.09373703 1.973957
vt -0.05032499 -0.0260433
vt -0.05032499 1.973957
vt -0.1522419 -0.0260433
vt -0.1522419 1.973957
vt -0.1088298 -0.0260433
vt -0.1088298 1.973957
vt -0.1950021 -0.0260433
vt -0.1950021 1.973957
vt -0.1515901 -0.0260433
vt -0.1515901 1.973957
vt -0.2168604 -0.0260433
vt -0.2168604 1.973957
vt -0.1734484 -0.0260433
vt -0.1734484 1.973957
vt -0.2151802 -0.0260433
vt -0.2151802 1.973957
vt -0.1717682 -0.0260433
vt -0.1717682 1.973957
vt -0.1901641 -0.0260433
vt -0.1901641 1.973957
vt -0.146752 -0.0260433
vt -0.146752 1.973957
vt -0.1448295 -0.0260433
vt -0.1448295 1.973957
vt -0.1014174 -0.0260433
vt -0.1014174 1.973957
vt -0.08464435 -0.0260433
vt -0.08464435 1.973957
vt -0.04123231 -0.0260433
vt -0.04123231 1.973957
vt -0.01686792 -0.0260433
vt -0.01686792 1.973957
vt 0.02654414 -0.0260433
vt 0.02654414 1.973957
vt 0.05032496 -0.0260433
vt 0.05032496 1.973957
vt 0.093737 -0.0260433
vt 0.093737 1.973957
vt 0.1088298 -0.0260433
vt 0.1088298 1.973957
vt 0.1522419 -0.0260433
vt 0.1522419 1.973957
vt 0.1515901 -0.0260433
vt 0.1515901 1.973957
vt 0.1950022 -0.0260433
vt 0.1950022 1.973957
vt 0.1734484 -0.0260433
vt 0.1734484 1.973957
vt 0.2168605 -0.0260433
vt 0.2168605 1.973957
vt 0.1717681 -0.0260433
vt 0.1717681 1.973957
vt 0.2151801 -0.0260433
vt 0.2151801 1.973957
vt 0.1467521 -0.0260433
vt 0.1467521 1.973957
vt 0.1901641 -0.0260433
vt 0.1901641 1.973957
vt -0.2555358 0.1480398
vt -0.1305358 0.1480398
vt -0.2479974 0.1907923
vt 0.2555358 0.1480398
vt 0.1305358 0.1480398
vt 0.2479974 0.1907923
vt -0.2262914 0.2283883
vt 0.2262914 0.2283883
vt -0.1930358 0.256293
vt 0.1930358 0.256293
vt -0.1522419 0.2711408
vt 0.1522419 0.2711408
vt -0.1088298 0.2711408
vt 0.1088298 0.2711408
vt -0.06803583 0.256293
vt 0.06803583 0.256293
vt -0.03478029 0.2283883
vt 0.03478029 0.2283883
vt -0.01307426 0.1907924
vt 0.01307426 0.1907924
vt -0.005535841 0.1480398
vt 0.005535841 0.1480398
vt -0.01307426 0.1052873
vt 0.01307426 0.1052873
vt -0.03478028 0.06769137
vt 0.03478028 0.06769137
vt -0.06803586 0.03978664
vt 0.06803586 0.03978664
vt -0.1088298 0.02493884
vt 0.1088298 0.02493884
vt -0.1522419 0.02493885
vt 0.1522419 0.02493885
vt -0.1930358 0.03978664
vt 0.1930358 0.03978664
vt -0.2262914 0.06769135
vt 0.2262914 0.06769135
vt -0.2479974 0.1052873
vt 0.2479974 0.1052873

vn -1 0 -1.059173E-07
vn -0.9396926 0 0.3420202
vn -0.7660445 0 0.6427876
vn -0.5000001 0 0.8660254
vn -0.1736481 0 0.9848078
vn 0.1736481 0 0.9848078
vn 0.4999999 0 0.8660254
vn 0.7660444 0 0.6427877
vn 0.9396926 0 0.3420201
vn 1 0 -9.078621E-08
vn 0.9396926 0 -0.3420201
vn 0.7660444 0 -0.6427876
vn 0.5 0 -0.8660254
vn 0.1736481 0 -0.9848078
vn -0.1736482 0 -0.9848078
vn -0.4999998 0 -0.8660255
vn -0.7660443 0 -0.6427877
vn -0.9396926 0 -0.3420202
vn 0 -1 0
vn 0 1 0

usemtl White
f 1/73/19 37/74/19 3/75/19
f 3/75/19 37/74/19 5/79/19
f 5/79/19 37/74/19 7/81/19
f 7/81/19 37/74/19 9/83/19
f 9/83/19 37/74/19 11/85/19
f 11/85/19 37/74/19 13/87/19
f 13/87/19 37/74/19 15/89/19
f 15/89/19 37/74/19 17/91/19
f 17/91/19 37/74/19 19/93/19
f 19/93/19 37/74/19 21/95/19
f 21/95/19 37/74/19 23/97/19
f 23/97/19 37/74/19 25/99/19
f 25/99/19 37/74/19 27/101/19
f 27/101/19 37/74/19 29/103/19
f 29/103/19 37/74/19 31/105/19
f 31/105/19 37/74/19 33/107/19
f 33/107/19 37/74/19 35/109/19
f 35/109/19 37/74/19 1/73/19
f 4/78/20 38/77/20 2/76/20
f 6/80/20 38/77/20 4/78/20
f 8/82/20 38/77/20 6/80/20
f 10/84/20 38/77/20 8/82/20
f 12/86/20 38/77/20 10/84/20
f 14/88/20 38/77/20 12/86/20
f 16/90/20 38/77/20 14/88/20
f 18/92/20 38/77/20 16/90/20
f 20/94/20 38/77/20 18/92/20
f 22/96/20 38/77/20 20/94/20
f 24/98/20 38/77/20 22/96/20
f 26/100/20 38/77/20 24/98/20
f 28/102/20 38/77/20 26/100/20
f 30/104/20 38/77/20 28/102/20
f 32/106/20 38/77/20 30/104/20
f 34/108/20 38/77/20 32/106/20
f 36/110/20 38/77/20 34/108/20
f 2/76/20 38/77/20 36/110/20
f 4/4/2 2/2/1 1/1/1
f 1/1/1 3/3/2 4/4/2
f 6/8/3 4/6/2 3/5/2
f 3/5/2 5/7/3 6/8/3
f 8/12/4 6/10/3 5/9/3
f 5/9/3 7/11/4 8/12/4
f 10/16/5 8/14/4 7/13/4
f 7/13/4 9/15/5 10/16/5
f 12/20/6 10/18/5 9/17/5
f 9/17/5 11/19/6 12/20/6
f 14/24/7 12/22/6 11/21/6
f 11/21/6 13/23/7 14/24/7
f 16/28/8 14/26/7 13/25/7
f 13/25/7 15/27/8 16/28/8
f 18/32/9 16/30/8 15/29/8
f 15/29/8 17/31/9 18/32/9
f 20/36/10 18/34/9 17/33/9
f 17/33/9 19/35/10 20/36/10
f 22/40/11 20/38/10 19/37/10
f 19/37/10 21/39/11 22/40/11
f 24/44/12 22/42/11 21/41/11
f 21/41/11 23/43/12 24/44/12
f 26/48/13 24/46/12 23/45/12
f 23/45/12 25/47/13 26/48/13
f 28/52/14 26/50/13 25/49/13
f 25/49/13 27/51/14 28/52/14
f 30/56/15 28/54/14 27/53/14
f 27/53/14 29/55/15 30/56/15
f 32/60/16 30/58/15 29/57/15
f 29/57/15 31/59/16 32/60/16
f 34/64/17 32/62/16 31/61/16
f 31/61/16 33/63/17 34/64/17
f 36/68/18 34/66/17 33/65/17
f 33/65/17 35/67/18 36/68/18
f 2/72/1 36/70/18 35/69/18
f 35/69/18 1/71/1 2/72/1

